# xmcd CD database file
#
# Track frame offsets:
#	150
#	5040
#	16622
#	33787
#	54307
#	88047
#	116725
#	147700
#	169860
#	186692
#	224920
#	260420
#	277782
#	298540
#	328515
#
# Disc length: 4634 seconds
#
# Revision: 0
# Processed by: cddbd v1.5.1PL0 Copyright (c) Steve Scherf et al.
# Submitted via: CDex 1.51
#
DISCID=e112180f
DTITLE=Starless - Song Of Silence - Wish
DYEAR=1992
DGENRE=Progressive Rock
TTITLE0=Song Of Silence (Beginning)
TTITLE1=氷のオブジェ Objet De Glace
TTITLE2=左胸 Aim Your Heart
TTITLE3=For Epiqurasist
TTITLE4=Another Horizon
TTITLE5=切れた糸The Loose Ends
TTITLE6=Again (Under The Only One Sky)
TTITLE7=逃げられない夜につかまって Caught By The Night
TTITLE8=空とぶじゅうたん Tale Of The Flying Carpet
TTITLE9=Song Of Silence
TTITLE10=Change Me Into The Wind
TTITLE11=Waitin' In Vain
TTITLE12=だれかの背中
TTITLE13=Wish Part 1
TTITLE14=Wish Part 2
EXTD=YEAR: 1992
EXTT0=
EXTT1=
EXTT2=
EXTT3=
EXTT4=
EXTT5=
EXTT6=
EXTT7=
EXTT8=
EXTT9=
EXTT10=
EXTT11=
EXTT12=
EXTT13=
EXTT14=
PLAYORDER=
